<svg width="20" height="20" viewBox="0 0 20 20" fill="none" xmlns="http://www.w3.org/2000/svg">
<path d="M17.619 0H2.381C1.74976 0.000793843 1.14461 0.251903 0.698256 0.698256C0.251903 1.14461 0.000793843 1.74976 0 2.381V17.619C0.000793843 18.2502 0.251903 18.8554 0.698256 19.3017C1.14461 19.7481 1.74976 19.9992 2.381 20H17.619C18.2502 19.9992 18.8554 19.7481 19.3017 19.3017C19.7481 18.8554 19.9992 18.2502 20 17.619V2.381C19.9992 1.74976 19.7481 1.14461 19.3017 0.698256C18.8554 0.251903 18.2502 0.000793843 17.619 0ZM15.719 8.725C15.61 8.736 15.5 8.741 15.391 8.742C14.7977 8.74277 14.2135 8.59571 13.6913 8.31409C13.1691 8.03246 12.7253 7.62517 12.4 7.129V12.622C12.4002 13.4253 12.1622 14.2106 11.716 14.8785C11.2699 15.5465 10.6356 16.0672 9.89354 16.3747C9.15145 16.6822 8.33483 16.7627 7.54698 16.606C6.75913 16.4494 6.03544 16.0626 5.46744 15.4946C4.89944 14.9266 4.51264 14.2029 4.35598 13.415C4.19932 12.6272 4.27983 11.8106 4.58732 11.0685C4.89481 10.3264 5.41547 9.69214 6.08345 9.24599C6.75143 8.79983 7.53673 8.5618 8.34 8.562C8.425 8.562 8.507 8.57 8.591 8.575V10.575C8.31122 10.5411 8.02746 10.5648 7.75717 10.6446C7.48688 10.7244 7.23576 10.8586 7.01925 11.039C6.80274 11.2194 6.62541 11.4422 6.49815 11.6937C6.3709 11.9451 6.29641 12.22 6.27927 12.5013C6.26213 12.7826 6.3027 13.0644 6.39847 13.3295C6.49425 13.5945 6.64322 13.8372 6.83622 14.0426C7.02923 14.2479 7.26219 14.4116 7.52079 14.5237C7.77939 14.6357 8.05818 14.6937 8.34 14.694C8.89617 14.7041 9.43407 14.4954 9.83801 14.113C10.2419 13.7306 10.4797 13.2049 10.5 12.649L10.52 3.318H12.434C12.5214 4.14945 12.8983 4.92372 13.4988 5.5054C14.0993 6.08708 14.8852 6.43913 15.719 6.5V8.724" fill="#4F4F4F"/>
</svg>
